<svg xmlns="http://www.w3.org/2000/svg" viewBox="0 0 64 64" width="64" height="64">
  <rect width="64" height="64" rx="16" fill="#07090E"/>
  <path d="M10.24035812672176 53.75Q9.069559228650135 53.75 9.069559228650135 52.579201101928376V12.420798898071624Q9.069559228650135 11.25 10.24035812672176 11.25H23.64600550964187Q24.816804407713498 11.25 24.816804407713498 12.420798898071624V18.040633608815426Q24.816804407713498 19.21143250688705 23.64600550964187 19.21143250688705H18.611570247933884V28.168044077134986H22.826446280991732Q23.99724517906336 28.168044077134986 23.99724517906336 29.33884297520661L23.938705234159777 34.95867768595041Q23.938705234159777 36.129476584022036 22.767906336088153 36.129476584022036H18.611570247933884V52.579201101928376Q18.611570247933884 53.75 17.440771349862256 53.75Z M28.095041322314046 53.75Q26.924242424242422 53.75 26.924242424242422 52.579201101928376V12.420798898071624Q26.924242424242422 11.25 28.095041322314046 11.25H38.98347107438016Q42.730027548209364 11.25 44.86673553719008 12.069559228650139Q47.0034435261708 12.889118457300277 48.11570247933884 14.235537190082646Q49.22796143250689 15.581955922865014 49.579201101928376 17.25034435261708Q49.930440771349865 18.918732782369148 49.930440771349865 20.616391184573004V44.383608815426996Q49.930440771349865 46.08126721763085 49.579201101928376 47.74965564738292Q49.22796143250689 49.41804407713499 48.11570247933884 50.764462809917354Q47.0034435261708 52.11088154269972 44.86673553719008 52.930440771349865Q42.730027548209364 53.75 38.98347107438016 53.75ZM36.46625344352617 45.78856749311295H38.632231404958674Q39.62741046831956 45.78856749311295 40.00792011019284 45.20316804407714Q40.388429752066116 44.617768595041326 40.388429752066116 43.97382920110193V20.967630853994493Q40.388429752066116 20.323691460055095 39.97865013774104 19.767561983471072Q39.568870523415974 19.21143250688705 38.573691460055095 19.21143250688705H36.46625344352617Z" fill="#EF4444"/>
  <circle cx="52.0" cy="13.0" r="4.2" fill="#EF4444"/>
</svg>